<?xml version="1.0" encoding="iso-8859-1"?>
<!-- Uploaded to: SVG Repo, www.svgrepo.com, Generator: SVG Repo Mixer Tools -->
<svg fill="#000000" height="800px" width="800px" version="1.1" id="Layer_1" xmlns="http://www.w3.org/2000/svg" xmlns:xlink="http://www.w3.org/1999/xlink" 
	 viewBox="0 0 463.24 463.24" xml:space="preserve">
<g>
	<g>
		<path d="M447.758,177.884h-59.14v-47.675c0-8.551-6.932-15.483-15.483-15.483H15.483C6.932,114.725,0,121.657,0,130.208v202.824
			c0,8.551,6.932,15.483,15.483,15.483h357.651c8.552,0,15.483-6.932,15.483-15.483v-47.676h59.14
			c8.552,0,15.483-6.932,15.483-15.483v-76.506C463.241,184.816,456.31,177.884,447.758,177.884z M59.024,288.485V174.756h52.497
			v113.729H59.024z M219.522,288.485h-52.497V174.756h52.497V288.485z"/>
	</g>
</g>
</svg>