<?xml version="1.0" encoding="iso-8859-1"?>
<!-- Uploaded to: SVG Repo, www.svgrepo.com, Generator: SVG Repo Mixer Tools -->
<svg fill="#000000" height="800px" width="800px" version="1.1" id="Layer_1" xmlns="http://www.w3.org/2000/svg" xmlns:xlink="http://www.w3.org/1999/xlink" 
	 viewBox="0 0 460.002 460.002" xml:space="preserve">
<g>
	<g>
		<path d="M427.138,0h-41.777H226.368H32.866C14.744,0,0.001,14.743,0.001,32.865v394.272c0,18.122,14.743,32.865,32.864,32.865
			h394.272c18.121,0,32.864-14.743,32.864-32.865V32.865C460.002,14.743,445.259,0,427.138,0z M400.361,230
			c0,5.601-3.12,10.735-8.092,13.314c-4.958,2.573-10.956,2.182-15.545-1.05l-70.859-49.901l-70.859,49.901
			c-4.578,3.225-10.572,3.63-15.545,1.05c-4.972-2.58-8.092-7.714-8.092-13.314V30h29.999h128.993h30V230z"/>
	</g>
</g>
</svg>