<?xml version="1.0" encoding="iso-8859-1"?>
<!-- Uploaded to: SVG Repo, www.svgrepo.com, Generator: SVG Repo Mixer Tools -->
<svg fill="#000000" height="800px" width="800px" version="1.1" id="Layer_1" xmlns="http://www.w3.org/2000/svg" xmlns:xlink="http://www.w3.org/1999/xlink" 
	 viewBox="0 0 460.002 460.002" xml:space="preserve">
<g>
	<g>
		<g>
			<circle cx="76.849" cy="72.364" r="26.249"/>
			<path d="M427.137,0H32.865C14.743,0,0,14.743,0,32.865v394.272c0,18.122,14.743,32.865,32.865,32.865h394.272
				c18.122,0,32.865-14.743,32.865-32.865V32.865C460.002,14.743,445.259,0,427.137,0z M381.544,374.969H78.458
				c-8.284,0-15-6.716-15-15s6.716-15,15-15h303.086c8.284,0,15,6.716,15,15S389.828,374.969,381.544,374.969z M381.544,303.33
				H78.458c-8.284,0-15-6.716-15-15s6.716-15,15-15h303.086c8.284,0,15,6.716,15,15C396.544,296.614,389.828,303.33,381.544,303.33z
				 M381.544,231.69H78.458c-8.284,0-15-6.716-15-15s6.716-15,15-15h303.086c8.284,0,15,6.716,15,15S389.828,231.69,381.544,231.69z
				 M430.002,117.728H30V32.865C30,31.285,31.285,30,32.865,30h394.272c1.58,0,2.865,1.285,2.865,2.865V117.728z"/>
		</g>
	</g>
</g>
</svg>