<?xml version="1.0" encoding="iso-8859-1"?>
<!-- Uploaded to: SVG Repo, www.svgrepo.com, Generator: SVG Repo Mixer Tools -->
<svg fill="#000000" height="800px" width="800px" version="1.1" id="Layer_1" xmlns="http://www.w3.org/2000/svg" xmlns:xlink="http://www.w3.org/1999/xlink" 
	 viewBox="0 0 462.001 462.001" xml:space="preserve">
<g>
	<g>
		<path d="M413.703,0H48.297c-9.866,0-17.886,8.008-17.886,17.886v426.229c0,9.87,8.027,17.886,17.886,17.886h365.407
			c9.877,0,17.886-8.007,17.886-17.886V17.886C431.59,8.006,423.556,0,413.703,0z M93.801,63.391h274.398v143.381H93.801V63.391z
			 M93.491,258.538c0-5.944,4.831-10.928,10.928-10.928h48.122c6.035,0,10.928,4.893,10.928,10.928v48.122
			c0,6.035-4.893,10.928-10.928,10.928h-48.122c-6.096,0-10.928-4.983-10.928-10.928V258.538z M152.541,416.97h-48.122
			c-6.035,0-10.928-4.893-10.928-10.928V357.92c0-5.944,4.831-10.928,10.928-10.928h48.122c6.035,0,10.928,4.893,10.928,10.928
			c0,6.231,0,41.309,0,48.122C163.469,412.077,158.576,416.97,152.541,416.97z M265.291,406.042c0,6.035-4.893,10.928-10.928,10.928
			h-48.121c-6.035,0-10.928-4.893-10.928-10.928c0-6.815,0-41.916,0-48.122c0-6.035,4.893-10.928,10.928-10.928h48.121
			c6.035,0,10.928,4.893,10.928,10.928C265.291,364.151,265.291,399.229,265.291,406.042z M265.291,306.66
			c0,6.035-4.893,10.928-10.928,10.928h-48.121c-6.035,0-10.928-4.893-10.928-10.928v-48.122c0-6.035,4.893-10.928,10.928-10.928
			h48.121c6.035,0,10.928,4.893,10.928,10.928V306.66z M368.508,406.042c0,6.035-4.893,10.928-10.928,10.928h-48.121
			c-6.035,0-10.928-4.893-10.928-10.928c0-6.815,0-41.916,0-48.122c0-6.035,4.893-10.928,10.928-10.928h48.121
			c6.082,0,10.928,4.967,10.928,10.928V406.042z M368.508,306.66c0,5.965-4.849,10.928-10.928,10.928h-48.121
			c-6.035,0-10.928-4.893-10.928-10.928v-48.122c0-6.035,4.893-10.928,10.928-10.928h48.121c6.082,0,10.928,4.967,10.928,10.928
			V306.66z"/>
	</g>
</g>
</svg>