<?xml version="1.0" encoding="iso-8859-1"?>
<!-- Uploaded to: SVG Repo, www.svgrepo.com, Generator: SVG Repo Mixer Tools -->
<svg fill="#000000" version="1.1" id="Layer_1" xmlns="http://www.w3.org/2000/svg" xmlns:xlink="http://www.w3.org/1999/xlink" 
	 viewBox="0 0 458.721 458.721" xml:space="preserve">
<g>
	<g>
		<g>
			<path d="M407.377,38.065h-20.934v30.737h20.934c0.868,0,1.575,0.706,1.575,1.575v76.208H49.769V70.377
				c0-0.868,0.706-1.575,1.575-1.575h20.933V38.065H51.344c-17.817,0-32.312,14.495-32.312,32.312v356.032
				c0,17.817,14.495,32.312,32.312,32.312h356.033c17.817,0,32.312-14.495,32.312-32.312V70.377
				C439.689,52.56,425.194,38.065,407.377,38.065z M101.79,222.345h156.127c8.488,0,15.369,6.881,15.369,15.369
				c0,8.488-6.881,15.368-15.369,15.368H101.79c-8.488,0-15.368-6.881-15.368-15.368S93.302,222.345,101.79,222.345z
				 M349.425,328.574H101.79c-8.488,0-15.368-6.881-15.368-15.368s6.88-15.368,15.368-15.368h247.635
				c8.488,0,15.369,6.881,15.369,15.368S357.913,328.574,349.425,328.574z"/>
			<rect x="270.343" y="38.065" width="34.135" height="30.737"/>
			<rect x="154.243" y="38.065" width="34.134" height="30.737"/>
			<path d="M113.26,101.972c8.488,0,15.368-6.881,15.368-15.368V15.368C128.629,6.881,121.748,0,113.26,0
				S97.892,6.881,97.892,15.368v71.235C97.892,95.091,104.772,101.972,113.26,101.972z"/>
			<path d="M229.36,101.972c8.488,0,15.368-6.881,15.368-15.368V15.368C244.729,6.881,237.848,0,229.36,0
				c-8.488,0-15.369,6.881-15.369,15.368v71.235C213.992,95.091,220.872,101.972,229.36,101.972z"/>
			<path d="M345.461,101.972c8.488,0,15.369-6.881,15.369-15.368V15.368C360.829,6.881,353.948,0,345.461,0
				s-15.368,6.881-15.368,15.368v71.235C330.092,95.091,336.973,101.972,345.461,101.972z"/>
		</g>
	</g>
</g>
</svg>