<?xml version="1.0" encoding="iso-8859-1"?>
<!-- Uploaded to: SVG Repo, www.svgrepo.com, Generator: SVG Repo Mixer Tools -->
<svg fill="#000000" height="800px" width="800px" version="1.1" id="Layer_1" xmlns="http://www.w3.org/2000/svg" xmlns:xlink="http://www.w3.org/1999/xlink" 
	 viewBox="0 0 457.087 457.087" xml:space="preserve">
<g>
	<g>
		<g>
			<polygon points="156.801,328.982 152.339,380.04 304.749,380.04 300.287,328.982 			"/>
			<path d="M422.762,77.047H34.326C15.398,77.047,0,92.446,0,111.373v234.341c0,18.928,15.398,34.326,34.326,34.326h87.898
				l5.887-67.364c0.678-7.749,7.165-13.694,14.943-13.694h170.979c7.778,0,14.266,5.945,14.943,13.694l5.887,67.364h87.898
				c18.928,0,34.326-15.398,34.326-34.326V111.373C457.088,92.446,441.69,77.047,422.762,77.047z M333.315,277.436
				c-32.656,0-60.035-22.953-66.896-53.569h-75.751c-6.862,30.616-34.24,53.569-66.896,53.569c-37.809,0-68.568-30.76-68.568-68.569
				s30.76-68.568,68.568-68.568c32.655,0,60.034,22.953,66.896,53.568h75.751c6.862-30.615,34.24-53.568,66.896-53.568
				c37.809,0,68.568,30.76,68.568,68.568C401.884,246.676,371.124,277.436,333.315,277.436z"/>
			<path d="M123.772,193.867h35.532c-5.863-13.837-19.583-23.568-35.532-23.568c-21.267,0-38.568,17.302-38.568,38.568
				c0,21.268,17.302,38.569,38.568,38.569c15.949,0,29.669-9.731,35.532-23.569h-35.532c-8.284,0-15-6.716-15-15
				S115.488,193.867,123.772,193.867z"/>
			<path d="M333.315,170.298c-15.95,0-29.669,9.732-35.533,23.568h35.533c8.284,0,15,6.716,15,15s-6.716,15-15,15h-35.533
				c5.863,13.838,19.583,23.569,35.533,23.569c21.267,0,38.568-17.302,38.568-38.569C371.884,187.6,354.582,170.298,333.315,170.298
				z"/>
		</g>
	</g>
</g>
</svg>