<?xml version="1.0" encoding="iso-8859-1"?>
<!-- Uploaded to: SVG Repo, www.svgrepo.com, Generator: SVG Repo Mixer Tools -->
<svg fill="#000000" height="800px" width="800px" version="1.1" id="Layer_1" xmlns="http://www.w3.org/2000/svg" xmlns:xlink="http://www.w3.org/1999/xlink" 
	 viewBox="0 0 459.023 459.023" xml:space="preserve">
<g>
	<g>
		<g>
			<path d="M414.229,182.52c0.685-4.602,1.03-9.256,1.03-13.933c0-52.192-42.462-94.654-94.654-94.654
				c-7.411,0-14.71,0.85-21.826,2.538c-10.515-20.303-25.821-37.72-44.843-50.896C230.398,9.27,202.772,0.651,174.043,0.651
				c-77.447,0-140.455,63.008-140.455,140.455c0,14.879,2.28,29.373,6.793,43.275C16.203,195.692,0,220.167,0,247.974
				c0,38.724,31.504,70.227,70.227,70.227h71.503c0-10.819,0-98.06,0-108.864c0-25.255,20.546-45.8,45.8-45.8h83.963
				c25.255,0,45.801,20.546,45.801,45.8c0,10.825,0,98.047,0,108.864h71.502c38.724,0,70.227-31.504,70.227-70.227
				C459.024,218.564,440.636,192.805,414.229,182.52z"/>
			<path d="M299.678,357.672h-12.917V209.338c0-8.432-6.835-15.267-15.267-15.267c-89.803,0-84.369-0.038-85.524,0.079
				c-7.698,0.782-13.706,7.283-13.706,15.188v148.333h-12.917c-13.551,0-20.302,16.297-10.933,25.913
				c0.047,0.049,0.09,0.101,0.138,0.149l70.166,70.166c2.969,2.97,6.943,4.472,10.795,4.472c3.755,0,7.779-1.456,10.795-4.472
				l70.166-70.166C320.147,374.06,313.126,357.672,299.678,357.672z"/>
		</g>
	</g>
</g>
</svg>