<?xml version="1.0" encoding="iso-8859-1"?>
<!-- Uploaded to: SVG Repo, www.svgrepo.com, Generator: SVG Repo Mixer Tools -->
<svg fill="#000000" height="800px" width="800px" version="1.1" id="Layer_1" xmlns="http://www.w3.org/2000/svg" xmlns:xlink="http://www.w3.org/1999/xlink" 
	 viewBox="0 0 461.001 461.001" xml:space="preserve">
<g>
	<g>
		<g>
			<path d="M416.013,196.595c0.688-4.622,1.034-9.296,1.034-13.993c0-52.417-42.645-95.062-95.062-95.062
				c-7.443,0-14.774,0.854-21.92,2.548c-10.561-20.391-25.933-37.882-45.036-51.115c-23.639-16.375-51.384-25.03-80.237-25.03
				c-77.78,0-141.06,63.279-141.06,141.06c0,14.943,2.289,29.499,6.822,43.462C16.272,209.822,0,234.404,0,262.331
				c0,38.89,31.639,70.53,70.53,70.53h71.811v-22.957c-29.822-12.382-38.253-51.6-14.833-75.009l70.467-70.467
				c8.688-8.689,20.239-13.474,32.526-13.474c12.287,0,23.839,4.785,32.525,13.473l70.466,70.466
				c23.276,23.273,15.139,62.567-14.831,75.011v22.957h71.81c38.891,0,70.53-31.639,70.53-70.53
				C461.001,232.794,442.534,206.924,416.013,196.595z"/>
			<path d="M311.81,256.578l-70.468-70.468c-2.994-2.994-6.918-4.491-10.842-4.491s-7.848,1.497-10.842,4.491l-70.468,70.468
				c-9.623,9.619-2.785,26.174,10.842,26.174h12.973v148.972c0,8.468,6.865,15.333,15.333,15.333h84.325
				c8.468,0,15.333-6.865,15.333-15.333V282.752h12.973c13.608,0,20.479-16.524,10.847-26.167
				C311.814,256.583,311.812,256.58,311.81,256.578z"/>
		</g>
	</g>
</g>
</svg>