<?xml version="1.0" encoding="iso-8859-1"?>
<!-- Uploaded to: SVG Repo, www.svgrepo.com, Generator: SVG Repo Mixer Tools -->
<svg fill="#000000" height="800px" width="800px" version="1.1" id="Layer_1" xmlns="http://www.w3.org/2000/svg" xmlns:xlink="http://www.w3.org/1999/xlink" 
	 viewBox="0 0 464.482 464.482" xml:space="preserve">
<g>
	<g>
		<g>
			<path d="M162.738,0H57.744c-27.614,0-50,22.386-50,50v364.482c0,27.614,22.386,50,50,50h104.994c8.284,0,15-6.716,15-15v-70
				c0-8.284-6.716-15-15-15h-54.994V100h54.994c8.284,0,15-6.716,15-15V15C177.738,6.716,171.022,0,162.738,0z"/>
			<path d="M406.738,0H301.744c-8.284,0-15,6.716-15,15v70c0,8.284,6.716,15,15,15h54.994v264.482h-54.994c-8.284,0-15,6.716-15,15
				v70c0,8.284,6.716,15,15,15h104.994c27.614,0,50-22.386,50-50V50h0C456.738,22.386,434.352,0,406.738,0z"/>
		</g>
	</g>
</g>
</svg>