<?xml version="1.0" encoding="iso-8859-1"?>
<!-- Uploaded to: SVG Repo, www.svgrepo.com, Generator: SVG Repo Mixer Tools -->
<svg fill="#000000" height="800px" width="800px" version="1.1" id="Layer_1" xmlns="http://www.w3.org/2000/svg" xmlns:xlink="http://www.w3.org/1999/xlink" 
	 viewBox="0 0 459.109 459.109" xml:space="preserve">
<g>
	<g>
		<path d="M444.109,141.036H318.073V15c0-8.284-6.716-15-15-15H15C6.716,0,0,6.716,0,15v288.072c0,8.284,6.716,15,15,15h126.036
			v126.037c0,8.284,6.716,15,15,15h288.073c8.284,0,15-6.716,15-15V156.036C459.109,147.752,452.394,141.036,444.109,141.036z
			 M288.748,273.605c0,8.284-6.716,15-15,15h-88.496c-8.332,0-15-6.796-15-15v-88.496c0-8.324,6.827-15,15-15h88.496
			c8.156,0,15,6.636,15,15V273.605z"/>
	</g>
</g>
</svg>