<?xml version="1.0" encoding="iso-8859-1"?>
<!-- Uploaded to: SVG Repo, www.svgrepo.com, Generator: SVG Repo Mixer Tools -->
<svg fill="#000000" height="800px" width="800px" version="1.1" id="Layer_1" xmlns="http://www.w3.org/2000/svg" xmlns:xlink="http://www.w3.org/1999/xlink" 
	 viewBox="0 0 460.001 460.001" xml:space="preserve">
<g>
	<g>
		<path d="M427.137,0H32.865C14.743,0,0,14.744,0,32.864v394.272C0,445.257,14.743,460,32.865,460c16.513,0,377.763,0,394.271,0
			c18.128,0,32.865-14.776,32.865-32.864c0-16.402,0-377.905,0-394.272C460.002,14.744,445.259,0,427.137,0z M430.002,427.136
			c0,1.579-1.285,2.864-2.865,2.864c-8.02,0-61.373,0-69.256,0l-49.032-49.032l-27.205,27.205c-2.869,2.87-6.706,4.393-10.609,4.393
			c-1.933,0-3.882-0.373-5.737-1.142c-5.605-2.322-9.26-7.791-9.26-13.858V271.529c0-8.284,6.716-15,15-15h126.038
			c6.067,0,11.536,3.654,13.858,9.26c2.321,5.605,1.038,12.057-3.252,16.347l-27.205,27.205l49.525,49.525
			C430.002,367.858,430.002,418.143,430.002,427.136z"/>
	</g>
</g>
</svg>