<?xml version="1.0" encoding="iso-8859-1"?>
<!-- Uploaded to: SVG Repo, www.svgrepo.com, Generator: SVG Repo Mixer Tools -->
<svg fill="#000000" height="800px" width="800px" version="1.1" id="Layer_1" xmlns="http://www.w3.org/2000/svg" xmlns:xlink="http://www.w3.org/1999/xlink" 
	 viewBox="0 0 460.002 460.002" xml:space="preserve">
<g>
	<g>
		<path d="M427.137,0.001H32.865C14.743,0.001,0,14.743,0,32.866v394.271c0,18.122,14.743,32.865,32.865,32.865h394.272
			c18.122,0,32.865-14.743,32.865-32.865V32.866C460.002,14.743,445.259,0.001,427.137,0.001z M59.761,72.03c0-8.284,6.716-15,15-15
			h99.716c6.067,0,11.537,3.654,13.858,9.26c2.323,5.606,1.039,12.057-3.251,16.347l-99.716,99.716
			c-2.869,2.87-6.706,4.393-10.61,4.393c-1.932,0-3.881-0.373-5.737-1.142c-5.605-2.322-9.26-7.791-9.26-13.858V72.03z
			 M188.336,388.079c-2.322,5.605-7.792,9.26-13.858,9.26H74.762c-8.284,0-15-6.716-15-15v-99.716c0-6.067,3.655-11.536,9.26-13.858
			c5.604-2.321,12.057-1.039,16.347,3.252l99.716,99.716C189.374,376.022,190.658,382.475,188.336,388.079z M270.582,66.29
			c2.322-5.605,7.791-9.26,13.858-9.26h99.716c8.284,0,15,6.716,15,15v99.716h0.001c0,6.067-3.655,11.536-9.26,13.858
			c-1.855,0.769-3.805,1.142-5.737,1.142c-3.904,0-7.74-1.523-10.61-4.393l-99.716-99.716
			C269.544,78.348,268.261,71.897,270.582,66.29z M399.158,382.34L399.158,382.34c-0.001,8.284-6.717,15-15.001,15h-99.716
			c-6.067,0-11.537-3.654-13.858-9.26c-2.321-5.605-1.038-12.057,3.252-16.347l99.716-99.716c4.289-4.291,10.741-5.574,16.347-3.252
			c5.605,2.322,9.26,7.791,9.26,13.858V382.34z"/>
	</g>
</g>
</svg>