<?xml version="1.0" encoding="iso-8859-1"?>
<!-- Uploaded to: SVG Repo, www.svgrepo.com, Generator: SVG Repo Mixer Tools -->
<svg fill="#000000" height="800px" width="800px" version="1.1" id="Layer_1" xmlns="http://www.w3.org/2000/svg" xmlns:xlink="http://www.w3.org/1999/xlink" 
	 viewBox="0 0 464.841 464.841" xml:space="preserve">
<g>
	<g>
		<path d="M431.008,116.853h-238.14V79.848c0-18.655-15.177-33.833-33.833-33.833H33.833C15.178,46.015,0,61.193,0,79.848v305.145
			c0,18.655,15.178,33.833,33.833,33.833h397.175c18.656,0,33.833-15.178,33.833-33.833V150.686
			C464.841,132.031,449.664,116.853,431.008,116.853z M366.822,197.073L209.367,354.529c-2.813,2.813-6.628,4.394-10.606,4.394
			c-3.978,0-7.793-1.58-10.606-4.394L98.02,264.394c-5.858-5.857-5.858-15.355,0-21.213c5.857-5.857,15.355-5.857,21.213,0
			l79.528,79.528l146.849-146.85c5.857-5.857,15.355-5.857,21.213,0C372.68,181.718,372.68,191.216,366.822,197.073z"/>
	</g>
</g>
</svg>