<?xml version="1.0" encoding="iso-8859-1"?>
<!-- Uploaded to: SVG Repo, www.svgrepo.com, Generator: SVG Repo Mixer Tools -->
<svg fill="#000000" height="800px" width="800px" version="1.1" id="Layer_1" xmlns="http://www.w3.org/2000/svg" xmlns:xlink="http://www.w3.org/1999/xlink" 
	 viewBox="0 0 461.43 461.43" xml:space="preserve">
<g>
	<g>
		<path d="M333.843,193.939c22.136-30.619,36.487-67.982,39.792-102.606h22.941c8.284,0,15-6.716,15-15V15c0-8.284-6.716-15-15-15
			H64.853c-8.284,0-15,6.716-15,15v61.333c0,8.284,6.716,15,15,15h22.941c3.305,34.624,17.656,71.987,39.792,102.606
			c10.701,14.802,22.487,27.126,35.009,36.776c-12.522,9.649-24.309,21.974-35.009,36.776
			c-22.136,30.619-36.487,67.982-39.792,102.606H64.853c-8.284,0-15,6.716-15,15v61.333c0,8.284,6.716,15,15,15h331.722
			c8.284,0,15-6.716,15-15v-61.333c0-8.284-6.716-15-15-15h-22.941c-3.305-34.624-17.656-71.987-39.792-102.606
			c-10.701-14.802-22.487-27.126-35.009-36.776C311.356,221.066,323.142,208.741,333.843,193.939z M245.715,362
			c0,8.284-6.716,15-15,15s-15-6.716-15-15v-23c0-8.284,6.716-15,15-15s15,6.716,15,15V362z M280.103,178.199
			c-9.753,13.491-21.623,22.597-34.388,26.609v81.116c0,8.284-6.716,15-15,15s-15-6.716-15-15v-81.116
			c-12.765-4.012-24.635-13.117-34.388-26.609c-11.438-15.821-18.266-35.755-18.266-53.324c0-8.284,6.716-15,15-15h105.308
			c8.284,0,15,6.716,15,15C298.369,142.444,291.54,162.378,280.103,178.199z"/>
	</g>
</g>
</svg>