<?xml version="1.0" encoding="iso-8859-1"?>
<!-- Uploaded to: SVG Repo, www.svgrepo.com, Generator: SVG Repo Mixer Tools -->
<svg fill="#000000" height="800px" width="800px" version="1.1" id="Layer_1" xmlns="http://www.w3.org/2000/svg" xmlns:xlink="http://www.w3.org/1999/xlink" 
	 viewBox="0 0 460.002 460.002" xml:space="preserve">
<g>
	<g>
		<path d="M427.137,0H32.865C14.743,0,0,14.743,0,32.865v394.272c0,18.122,14.743,32.865,32.865,32.865h394.272
			c18.122,0,32.865-14.743,32.865-32.865V32.865C460.002,14.743,445.259,0,427.137,0z M109.153,93.001H256.85
			c8.284,0,15,6.716,15,15s-6.716,15-15,15H109.153c-8.284,0-15-6.716-15-15S100.869,93.001,109.153,93.001z M350.85,367.001
			H109.153c-8.284,0-15-6.716-15-15s6.716-15,15-15H350.85c8.284,0,15,6.716,15,15S359.134,367.001,350.85,367.001z M350.85,245.001
			H109.153c-8.284,0-15-6.716-15-15s6.716-15,15-15H350.85c8.284,0,15,6.716,15,15S359.134,245.001,350.85,245.001z"/>
	</g>
</g>
</svg>