<?xml version="1.0" encoding="iso-8859-1"?>
<!-- Uploaded to: SVG Repo, www.svgrepo.com, Generator: SVG Repo Mixer Tools -->
<svg fill="#000000" height="800px" width="800px" version="1.1" id="Layer_1" xmlns="http://www.w3.org/2000/svg" xmlns:xlink="http://www.w3.org/1999/xlink" 
	 viewBox="0 0 460.002 460.002" xml:space="preserve">
<g>
	<g>
		<path d="M427.138,0H32.865C14.743,0,0,14.743,0,32.865v394.272c0,18.122,14.743,32.865,32.865,32.865h394.271
			c18.122,0,32.865-14.743,32.865-32.865V32.865C460.003,14.743,445.26,0,427.138,0z M129.502,141.32
			c0,11.102-6.036,20.789-15,25.976V406.38c0,8.284-6.716,15-15,15s-15-6.716-15-15V167.296c-8.964-5.188-15-14.874-15-25.976v-38
			c0-11.102,6.036-20.789,15-25.976V59.38c0-8.284,6.716-15,15-15s15,6.716,15,15v17.963c8.964,5.188,15,14.874,15,25.976V141.32z
			 M260.002,240.32c0,11.102-6.036,20.789-15,25.976v139.326c0,8.284-6.716,15-15,15s-15-6.716-15-15V266.296
			c-8.964-5.188-15-14.874-15-25.976v-38c0-11.102,6.036-20.789,15-25.976V58.622c0-8.284,6.716-15,15-15s15,6.716,15,15v117.721
			c8.964,5.188,15,14.874,15,25.976V240.32z M390.502,197.32c0,11.102-6.036,20.789-15,25.976v177.326c0,8.284-6.716,15-15,15
			s-15-6.716-15-15V223.296c-8.964-5.188-15-14.874-15-25.976v-38c0-11.102,6.036-20.789,15-25.976V53.622c0-8.284,6.716-15,15-15
			s15,6.716,15,15v79.721c8.964,5.188,15,14.874,15,25.976V197.32z"/>
	</g>
</g>
</svg>