<?xml version="1.0" encoding="iso-8859-1"?>
<!-- Uploaded to: SVG Repo, www.svgrepo.com, Generator: SVG Repo Mixer Tools -->
<svg fill="#fff" height="800px" width="800px" version="1.1" id="Layer_1" xmlns="http://www.w3.org/2000/svg" xmlns:xlink="http://www.w3.org/1999/xlink" 
	 viewBox="0 0 460.003 460.003" xml:space="preserve">
<g>
	<g>
		<path d="M427.138,0H32.865C14.743,0,0,14.743,0,32.865v394.273c0,18.122,14.743,32.865,32.865,32.865h394.272
			c18.122,0,32.865-14.743,32.865-32.865V32.865C460.003,14.743,445.26,0,427.138,0z M317.789,299.874l-77.182,77.182
			c-2.813,2.813-6.628,4.393-10.606,4.393c-3.978,0-7.794-1.58-10.606-4.393l-77.182-77.182c-4.29-4.29-5.573-10.742-3.251-16.347
			c2.321-5.605,7.791-9.26,13.858-9.26h154.364c6.067,0,11.536,3.655,13.858,9.26C323.362,289.132,322.08,295.583,317.789,299.874z
			 M350.851,202.553H109.154c-8.284,0-15-6.716-15-15s6.716-15,15-15h241.697c8.284,0,15,6.716,15,15
			S359.135,202.553,350.851,202.553z M350.851,108.553H109.154c-8.284,0-15-6.716-15-15s6.716-15,15-15h241.697
			c8.284,0,15,6.716,15,15S359.135,108.553,350.851,108.553z"/>
	</g>
</g>
</svg>