<?xml version="1.0" encoding="iso-8859-1"?>
<!-- Uploaded to: SVG Repo, www.svgrepo.com, Generator: SVG Repo Mixer Tools -->
<svg fill="#000000" height="800px" width="800px" version="1.1" id="Layer_1" xmlns="http://www.w3.org/2000/svg" xmlns:xlink="http://www.w3.org/1999/xlink" 
	 viewBox="0 0 457.952 457.952" xml:space="preserve">
<g>
	<g>
		<path d="M374.006,143.699h-22.645v-21.313C351.361,54.902,296.46,0,228.976,0S106.591,54.902,106.591,122.385v21.313H83.945
			c-18.121,0-32.864,14.743-32.864,32.865v248.524c0,18.122,14.743,32.865,32.864,32.865h290.06
			c18.122,0,32.865-14.743,32.865-32.865V176.563C406.871,158.442,392.128,143.699,374.006,143.699z M271.362,143.698h-84.771
			v-21.313c0-23.371,19.014-42.385,42.386-42.385c23.371,0,42.385,19.014,42.385,42.385V143.698z"/>
	</g>
</g>
</svg>