<?xml version="1.0" encoding="iso-8859-1"?>
<!-- Uploaded to: SVG Repo, www.svgrepo.com, Generator: SVG Repo Mixer Tools -->
<svg fill="#000000" height="800px" width="800px" version="1.1" id="Layer_1" xmlns="http://www.w3.org/2000/svg" xmlns:xlink="http://www.w3.org/1999/xlink" 
	 viewBox="0 0 460.002 460.002" xml:space="preserve">
<g>
	<g>
		<path d="M427.137,0.001H32.865C14.743,0.001,0,14.743,0,32.866v394.271c0,18.122,14.743,32.865,32.865,32.865h394.272
			c18.122,0,32.865-14.743,32.865-32.865V32.866C460.002,14.743,445.259,0.001,427.137,0.001z M201.508,394.116
			c-1.855,0.769-3.805,1.142-5.737,1.142c-3.904,0-7.74-1.523-10.61-4.394L69.627,275.329c-4.29-4.29-5.573-10.741-3.252-16.347
			c2.322-5.605,7.792-9.26,13.858-9.26h115.534c8.284,0,15,6.716,15,15v115.536h0.001
			C210.768,386.325,207.113,391.795,201.508,394.116z M210.769,195.28L210.769,195.28c-0.001,8.284-6.717,15-15.001,15H80.234
			c-6.067,0-11.537-3.654-13.858-9.26c-2.321-5.606-1.038-12.057,3.252-16.347L185.162,69.139
			c4.289-4.291,10.739-5.574,16.347-3.252c5.605,2.322,9.26,7.791,9.26,13.858V195.28z M390.375,275.329L274.84,390.865
			c-2.869,2.87-6.706,4.394-10.61,4.394c-1.932,0-3.881-0.373-5.737-1.142c-5.605-2.322-9.26-7.791-9.26-13.858V264.723
			c0-8.284,6.716-15,15-15h115.534c6.067,0,11.537,3.654,13.858,9.26C395.948,264.589,394.665,271.04,390.375,275.329z
			 M393.626,201.021c-2.322,5.605-7.792,9.26-13.858,9.26H264.234c-8.284,0-15-6.716-15-15V79.745c0-6.067,3.655-11.536,9.26-13.858
			c5.604-2.323,12.057-1.038,16.347,3.252l115.534,115.535C394.665,188.964,395.948,195.415,393.626,201.021z"/>
	</g>
</g>
</svg>