<?xml version="1.0" encoding="iso-8859-1"?>
<!-- Uploaded to: SVG Repo, www.svgrepo.com, Generator: SVG Repo Mixer Tools -->
<svg fill="#000000" height="800px" width="800px" version="1.1" id="Layer_1" xmlns="http://www.w3.org/2000/svg" xmlns:xlink="http://www.w3.org/1999/xlink" 
	 viewBox="0 0 460.002 460.002" xml:space="preserve">
<g>
	<g>
		<g>
			<path d="M367.436,89.7H92.565c-1.58,0-2.865,1.285-2.865,2.865v274.871c0,1.58,1.285,2.865,2.865,2.865H290.29v-65.01
				c0-8.284,6.716-15,15-15h65.011V92.565C370.301,90.986,369.016,89.7,367.436,89.7z"/>
			<polygon points="320.291,349.088 349.088,320.291 320.291,320.291 			"/>
			<path d="M427.137,0H32.865C14.743,0,0,14.743,0,32.865v394.272c0,18.122,14.743,32.865,32.865,32.865h394.272
				c18.122,0,32.865-14.743,32.865-32.865V32.865C460.002,14.743,445.259,0,427.137,0z M400.301,305.291
				c0,4.143-1.68,7.894-4.396,10.609L315.9,395.905c-2.715,2.716-6.466,4.396-10.609,4.396H92.565
				c-18.122,0-32.865-14.743-32.865-32.865V92.565C59.7,74.443,74.443,59.7,92.565,59.7h274.871
				c18.122,0,32.865,14.743,32.865,32.865V305.291z"/>
		</g>
	</g>
</g>
</svg>