<?xml version="1.0" encoding="iso-8859-1"?>
<!-- Uploaded to: SVG Repo, www.svgrepo.com, Generator: SVG Repo Mixer Tools -->
<svg fill="#000000" height="800px" width="800px" version="1.1" id="Layer_1" xmlns="http://www.w3.org/2000/svg" xmlns:xlink="http://www.w3.org/1999/xlink" 
	 viewBox="0 0 455.861 455.861" xml:space="preserve">
<g>
	<g>
		<g>
			<path d="M227.931,189.498c-36.877,0-66.879,30.001-66.879,66.878c0,36.877,30.002,66.88,66.879,66.88
				c36.878,0,66.879-30.003,66.879-66.88C294.81,219.499,264.808,189.498,227.931,189.498z"/>
			<path d="M441.088,92.596h-20.024V46.354c0-6.98-5.659-12.64-12.639-12.64H228.361c-6.98,0-12.639,5.659-12.639,12.64v46.241
				h-45.817V46.354c0-5.396-4.375-9.771-9.771-9.771H52.524c-5.396,0-9.771,4.374-9.771,9.771v46.241H14.774
				C6.615,92.596,0,99.21,0,107.37v300.003c0,8.16,6.615,14.774,14.774,14.774h426.313c8.16,0,14.774-6.614,14.774-14.774V107.37
				C455.862,99.21,449.247,92.596,441.088,92.596z M227.931,382.902c-69.767,0-126.527-56.759-126.527-126.526
				c0-69.821,56.843-126.525,126.527-126.525c69.901,0,126.527,56.91,126.527,126.525
				C354.458,326.144,297.698,382.902,227.931,382.902z M424.105,161.753c0,6.908-5.6,12.508-12.507,12.508h-40.392
				c-6.908,0-12.507-5.6-12.507-12.508c0-6.562,0-10.588,0-17.136c0-6.967,5.704-12.507,12.507-12.507c14.573,0,25.861,0,40.392,0
				c6.917,0,12.507,5.644,12.507,12.507V161.753z"/>
		</g>
	</g>
</g>
</svg>