<?xml version="1.0" encoding="iso-8859-1"?>
<!-- Uploaded to: SVG Repo, www.svgrepo.com, Generator: SVG Repo Mixer Tools -->
<svg fill="#000000" height="800px" width="800px" version="1.1" id="Layer_1" xmlns="http://www.w3.org/2000/svg" xmlns:xlink="http://www.w3.org/1999/xlink" 
	 viewBox="0 0 458.33 458.33" xml:space="preserve">
<g>
	<g>
		<g>
			<path d="M96.294,443.33c0,8.284,6.716,15,15,15h235.742c8.284,0,15-6.716,15-15v-62.026c-7.379,0-259.09,0-265.742,0V443.33z"/>
			<path d="M362.036,140.551V15c0-8.284-6.716-15-15-15H111.294c-8.284,0-15,6.716-15,15v125.551
				c5.896-0.942,11.938-1.439,18.096-1.439C366.326,139.112,349.67,138.574,362.036,140.551z"/>
			<path d="M343.94,169.112H114.39c-46.437,0-84.225,37.779-84.225,84.225v82.967c0,8.304,6.736,15,15,15h368
				c8.284,0,15-6.716,15-15v-82.967C428.165,206.871,390.368,169.112,343.94,169.112z M104.039,304.304
				c-12.177,0-22.048-9.871-22.048-22.048c0.001-12.177,9.872-22.048,22.048-22.048c12.177,0,22.048,9.871,22.048,22.048
				S116.216,304.304,104.039,304.304z M180.039,304.304c-12.177,0-22.048-9.871-22.048-22.048s9.871-22.048,22.048-22.048
				s22.048,9.871,22.048,22.048S192.216,304.304,180.039,304.304z"/>
		</g>
	</g>
</g>
</svg>