<?xml version="1.0" encoding="iso-8859-1"?>
<!-- Uploaded to: SVG Repo, www.svgrepo.com, Generator: SVG Repo Mixer Tools -->
<svg fill="#000000" height="800px" width="800px" version="1.1" id="Layer_1" xmlns="http://www.w3.org/2000/svg" xmlns:xlink="http://www.w3.org/1999/xlink" 
	 viewBox="0 0 457.234 457.234" xml:space="preserve">
<g>
	<g>
		<path d="M456.092,216.482c-2.322-5.605-7.791-9.26-13.858-9.26H412.74C401.865,103.271,313.719,21.971,206.937,21.971
			C92.831,21.971,0,114.802,0,228.907c0,108.662,84.185,198.031,190.758,206.31c4.167,0.324,8.28-1.108,11.349-3.945
			c3.07-2.837,4.829-6.829,4.829-11.009v-70.358c0-7.582-5.64-13.94-13.166-14.868C140.994,328.53,100,283.416,100,228.907
			c0-58.965,47.972-106.937,106.937-106.937c51.538,0,94.676,36.648,104.726,85.252h-26.149c-6.067,0-11.536,3.654-13.858,9.26
			c-2.321,5.605-1.038,12.057,3.252,16.347l78.36,78.359c2.929,2.929,6.768,4.394,10.606,4.394c3.838,0,7.678-1.465,10.606-4.394
			l78.36-78.359C457.13,228.539,458.413,222.088,456.092,216.482z"/>
	</g>
</g>
</svg>