<?xml version="1.0" encoding="iso-8859-1"?>
<!-- Uploaded to: SVG Repo, www.svgrepo.com, Generator: SVG Repo Mixer Tools -->
<svg fill="#000000" height="800px" width="800px" version="1.1" id="Layer_1" xmlns="http://www.w3.org/2000/svg" xmlns:xlink="http://www.w3.org/1999/xlink" 
	 viewBox="0 0 456.467 456.467" xml:space="preserve">
<g>
	<g>
		<g>
			<path d="M312.065,72.775L221.841,163c-2.813,2.813-4.394,6.628-4.394,10.606c0,3.978,1.581,7.794,4.394,10.606l50.416,50.415
				c2.929,2.929,6.768,4.394,10.606,4.394c3.838,0,7.678-1.465,10.606-4.394l90.224-90.224l27.205,27.205
				c2.87,2.87,6.706,4.394,10.61,4.394c1.932,0,3.881-0.373,5.737-1.142c5.605-2.322,9.26-7.791,9.26-13.858V34.963
				c0-8.284-6.716-15-15-15H295.467c-6.067,0-11.537,3.654-13.858,9.26c-2.321,5.605-1.038,12.057,3.252,16.347L312.065,72.775z"/>
			<path d="M452.432,232.755c-2.835-3.04-6.808-4.78-10.965-4.78h-70.282v0.001c-7.689,0-14.102,5.796-14.9,13.443
				c-6.742,64.557-61.482,115.048-127.793,115.048c-70.85,0-128.491-57.641-128.491-128.491
				c0-66.311,50.491-121.051,115.048-127.793c7.632-0.797,13.443-7.227,13.443-14.9V15c0-4.16-1.728-8.133-4.77-10.97
				c-3.042-2.837-7.126-4.28-11.276-3.994c-54.991,3.79-106.169,27.021-145.521,66.373C23.768,109.565,0.001,166.944,0.001,227.976
				c0,61.032,23.767,118.411,66.923,161.567c43.156,43.156,100.535,66.924,161.567,66.924s118.412-23.768,161.568-66.924
				c39.352-39.352,62.583-90.531,66.372-145.521C456.717,239.875,455.267,235.796,452.432,232.755z"/>
		</g>
	</g>
</g>
</svg>