<?xml version="1.0" encoding="iso-8859-1"?>
<!-- Uploaded to: SVG Repo, www.svgrepo.com, Generator: SVG Repo Mixer Tools -->
<svg fill="#000000" height="800px" width="800px" version="1.1" id="Layer_1" xmlns="http://www.w3.org/2000/svg" xmlns:xlink="http://www.w3.org/1999/xlink" 
	 viewBox="0 0 458.112 458.112" xml:space="preserve">
<g>
	<g>
		<path d="M417.769,442.064l-30-428.112C387.219,6.093,380.683,0,372.806,0h-287.5c-7.877,0-14.413,6.093-14.963,13.952l-30,428.112
			c-0.291,4.15,1.154,8.235,3.992,11.277c2.837,3.043,6.811,4.771,10.971,4.771h347.5c4.16,0,8.134-1.728,10.971-4.771
			C416.615,450.299,418.06,446.214,417.769,442.064z M229.056,211.545c-72.512,0-131.505-58.993-131.505-131.505
			c0-8.284,6.716-15,15-15s15,6.716,15,15c0,55.97,45.535,101.505,101.505,101.505S330.561,136.01,330.561,80.04
			c0-8.284,6.716-15,15-15s15,6.716,15,15C360.561,152.552,301.568,211.545,229.056,211.545z"/>
	</g>
</g>
</svg>