<?xml version="1.0" encoding="iso-8859-1"?>
<!-- Uploaded to: SVG Repo, www.svgrepo.com, Generator: SVG Repo Mixer Tools -->
<svg fill="#000000" height="800px" width="800px" version="1.1" id="Layer_1" xmlns="http://www.w3.org/2000/svg" xmlns:xlink="http://www.w3.org/1999/xlink" 
	 viewBox="0 0 461.501 461.501" xml:space="preserve">
<g>
	<g>
		<path d="M428.636,42.25H32.865C14.743,42.25,0,56.993,0,75.115v311.271c0,18.122,14.743,32.865,32.865,32.865h395.771
			c18.122,0,32.865-14.743,32.865-32.865V75.115C461.5,56.993,446.757,42.25,428.636,42.25z M173.95,306.75c0,8.284-6.716,15-15,15
			s-15-6.716-15-15v-152c0-8.284,6.716-15,15-15s15,6.716,15,15V306.75z M330.241,238.865l-108.375,76
			c-6.533,4.582-15.602-0.086-15.602-8.114v-152c0-8.014,9.051-12.711,15.602-8.114l108.375,76
			C335.858,226.575,335.868,234.919,330.241,238.865z"/>
	</g>
</g>
</svg>