<?xml version="1.0" encoding="iso-8859-1"?>
<!-- Uploaded to: SVG Repo, www.svgrepo.com, Generator: SVG Repo Mixer Tools -->
<svg fill="#000000" height="800px" width="800px" version="1.1" id="Layer_1" xmlns="http://www.w3.org/2000/svg" xmlns:xlink="http://www.w3.org/1999/xlink" 
	 viewBox="0 0 460.002 460.002" xml:space="preserve">
<g>
	<g>
		<g>
			<path d="M427.138,0H32.865C14.743,0,0.001,14.743,0.001,32.865v394.272c0,18.122,14.743,32.865,32.865,32.865h394.271
				c18.122,0,32.865-14.743,32.865-32.865V32.865C460.003,14.743,445.26,0,427.138,0z M317.747,309.577h-57.745v57.746
				c0,16.568-13.432,30-30,30s-30-13.432-30-30v-57.746h-57.746c-16.568,0-30-13.432-30-30s13.432-30,30-30h57.746v-57.746
				c0-16.568,13.432-30,30-30s30,13.432,30,30v57.746h57.745c16.568,0,30,13.432,30,30S334.315,309.577,317.747,309.577z
				 M30.001,117.728V32.865c0-1.58,1.285-2.865,2.865-2.865h394.271c1.58,0,2.865,1.285,2.865,2.865v84.863H30.001z"/>
			<circle cx="76.85" cy="72.364" r="26.249"/>
		</g>
	</g>
</g>
</svg>