<?xml version="1.0" encoding="iso-8859-1"?>
<!-- Uploaded to: SVG Repo, www.svgrepo.com, Generator: SVG Repo Mixer Tools -->
<svg fill="#000000" height="800px" width="800px" version="1.1" id="Layer_1" xmlns="http://www.w3.org/2000/svg" xmlns:xlink="http://www.w3.org/1999/xlink" 
	 viewBox="0 0 460.002 460.002" xml:space="preserve">
<g>
	<g>
		<g>
			<path d="M427.137,0.001H32.865C14.743,0.001,0,14.743,0,32.865v394.271c0,18.122,14.743,32.865,32.865,32.865h394.272
				c18.122,0,32.865-14.743,32.865-32.865V32.865C460.002,14.743,445.259,0.001,427.137,0.001z M293.258,388.434
				c-16.938,6.237-39.404,9.672-63.257,9.672c-23.854,0-46.319-3.435-63.258-9.672c-31.51-11.602-36.215-30.24-36.215-40.318
				c0.001-29.82,13.194-56.615,34.046-74.862c14.689,22.315,38.256,36.905,65.427,36.905c26.293,0,50.212-13.792,65.427-36.905
				c20.852,18.247,34.045,45.041,34.045,74.862C329.473,358.194,324.768,376.833,293.258,388.434z M178.721,219.042
				c0-33.113,22.309-61.118,51.28-61.118c28.995,0,51.28,28.031,51.28,61.118c0,33.074-22.283,61.118-51.28,61.118
				C201.028,280.159,178.721,252.154,178.721,219.042z M430.002,117.728H30V32.865c0-1.58,1.285-2.865,2.865-2.865h394.272
				c1.58,0,2.865,1.285,2.865,2.865V117.728z"/>
			<circle cx="76.849" cy="72.364" r="26.249"/>
		</g>
	</g>
</g>
</svg>