<?xml version="1.0" encoding="iso-8859-1"?>
<!-- Uploaded to: SVG Repo, www.svgrepo.com, Generator: SVG Repo Mixer Tools -->
<svg fill="#000000" height="800px" width="800px" version="1.1" id="Layer_1" xmlns="http://www.w3.org/2000/svg" xmlns:xlink="http://www.w3.org/1999/xlink" 
	 viewBox="0 0 427.184 427.184" xml:space="preserve">
<g>
	<g>
		<g>
			<path d="M239.428,57.57c-5.606-2.322-12.057-1.038-16.347,3.252l-67.979,67.979h-70.31C38.038,128.801,0,166.838,0,213.592
				c0,46.754,38.038,84.792,84.792,84.792h70.31l67.979,67.979c2.87,2.87,6.706,4.394,10.61,4.394c1.932,0,3.881-0.374,5.737-1.142
				c5.605-2.322,9.26-7.792,9.26-13.858V71.428C248.688,65.361,245.033,59.891,239.428,57.57z"/>
			<path d="M325.688,112.096c-13.807,0-25,11.193-25,25s11.193,25,25,25c28.395,0,51.496,23.101,51.496,51.496
				c0,28.395-23.101,51.496-51.496,51.496c-13.807,0-25,11.193-25,25s11.193,25,25,25c55.965,0,101.496-45.531,101.496-101.496
				C427.184,157.627,381.653,112.096,325.688,112.096z"/>
		</g>
	</g>
</g>
</svg>