<?xml version="1.0" encoding="iso-8859-1"?>
<!-- Uploaded to: SVG Repo, www.svgrepo.com, Generator: SVG Repo Mixer Tools -->
<svg fill="#000000" height="800px" width="800px" version="1.1" id="Layer_1" xmlns="http://www.w3.org/2000/svg" xmlns:xlink="http://www.w3.org/1999/xlink" 
	 viewBox="0 0 445.786 445.786" xml:space="preserve">
<g>
	<g>
		<path d="M441.392,85.694L360.091,4.394c-5.858-5.858-15.355-5.858-21.213,0L174.334,168.938
			c-37.291-5.061-74.391,7.167-101.265,34.042C53.921,222.126,35.2,266.056,15.836,337.277
			c-6.37,23.426-11.695,45.921-15.599,63.436c-1.973,8.85,8.841,14.783,15.253,8.371l85.487-85.487
			c-10.925-20.306-7.408-46.331,10.573-62.943c19.813-18.304,50.863-18.281,70.649,0.052c21.793,20.192,22.282,54.242,1.468,75.055
			c-16.647,16.647-41.759,19.657-61.477,9.048l-85.487,85.487c-6.412,6.412-0.48,17.226,8.371,15.253
			c17.515-3.904,40.009-9.23,63.435-15.599c71.222-19.364,115.151-38.085,134.299-57.232
			c27.555-27.556,38.878-65.286,33.983-101.208l164.602-164.603C447.25,101.051,447.25,91.553,441.392,85.694z"/>
	</g>
</g>
</svg>