<?xml version="1.0" encoding="iso-8859-1"?>
<!-- Uploaded to: SVG Repo, www.svgrepo.com, Generator: SVG Repo Mixer Tools -->
<svg fill="#000000" height="800px" width="800px" version="1.1" id="Layer_1" xmlns="http://www.w3.org/2000/svg" xmlns:xlink="http://www.w3.org/1999/xlink" 
	 viewBox="0 0 471.964 471.964" xml:space="preserve">
<g>
	<g>
		<g>
			<path d="M452.602,358.852l-79.983-79.982c-10.163,20.143-23.412,38.454-39.525,54.567c-15.87,15.87-33.868,28.97-53.653,39.072
				l79.752,79.753c25.815,25.814,67.594,25.815,93.409,0C478.417,426.448,478.419,384.668,452.602,358.852z"/>
			<path d="M365.392,183.038c0-100.9-81.797-182.696-182.696-182.696C81.796,0.342,0,82.138,0,183.038
				s81.796,182.695,182.696,182.695S365.392,283.938,365.392,183.038z M236.638,236.298c-7.594,7.592-19.906,7.595-27.502-0.001
				l-26.467-26.468l-26.467,26.468c-7.595,7.595-19.909,7.594-27.502,0.001c-7.595-7.595-7.595-19.908,0-27.502l26.468-26.469
				L128.7,155.859c-7.595-7.594-7.595-19.907,0-27.5c7.595-7.596,19.907-7.595,27.502,0l26.467,26.468l26.467-26.468
				c7.596-7.596,19.908-7.596,27.502,0c7.595,7.594,7.595,19.907,0,27.5l-26.468,26.469l26.468,26.468
				C244.233,216.39,244.233,228.703,236.638,236.298z"/>
		</g>
	</g>
</g>
</svg>