<?xml version="1.0" encoding="iso-8859-1"?>
<!-- Uploaded to: SVG Repo, www.svgrepo.com, Generator: SVG Repo Mixer Tools -->
<svg fill="#000000" height="800px" width="800px" version="1.1" id="Layer_1" xmlns="http://www.w3.org/2000/svg" xmlns:xlink="http://www.w3.org/1999/xlink" 
	 viewBox="0 0 470.564 470.564" xml:space="preserve">
<g>
	<g>
		<g>
			<path d="M451.296,357.971l-78.806-78.806c-10.146,20.041-23.353,38.263-39.396,54.307
				c-15.776,15.776-33.656,28.812-53.303,38.889l78.558,78.558c25.687,25.687,67.26,25.688,92.948,0
				C476.984,425.233,476.987,383.659,451.296,357.971z"/>
			<path d="M311.881,53.889c-71.347-71.347-187.024-71.347-258.371,0s-71.347,187.023,0,258.37s187.023,71.347,258.37,0
				S383.228,125.236,311.881,53.889z M240.058,201.999L126.302,202c-10.741,0-19.447-8.708-19.447-19.446
				c0-10.741,8.707-19.448,19.447-19.447l113.755-0.001c10.742,0,19.448,8.706,19.447,19.447
				C259.505,193.293,250.798,201.999,240.058,201.999z"/>
		</g>
	</g>
</g>
</svg>